<?xml version="1.0" standalone="no"?>
<!DOCTYPE svg PUBLIC "-//W3C//DTD SVG 20010904//EN"
 "http://www.w3.org/TR/2001/REC-SVG-20010904/DTD/svg10.dtd">
<svg version="1.0" xmlns="http://www.w3.org/2000/svg"
 width="2000.000000pt" height="2000.000000pt" viewBox="0 0 2000.000000 2000.000000"
 preserveAspectRatio="xMidYMid meet">
<metadata>
Created by potrace 1.14, written by Peter Selinger 2001-2017
</metadata>
<g transform="translate(0.000000,2000.000000) scale(0.100000,-0.100000)"
fill="#000000" stroke="none">
<path d="M9910 18719 c0 -3 -10 -5 -22 -4 -41 3 -181 -27 -288 -61 -8 -3 -16
-5 -17 -5 -5 1 -118 -41 -163 -61 -111 -49 -272 -139 -300 -168 -3 -3 -23 -18
-45 -35 -58 -43 -60 -44 -128 -111 -76 -74 -157 -163 -157 -172 0 -4 -10 -18
-23 -32 -41 -46 -126 -184 -171 -280 -61 -130 -87 -206 -121 -354 -6 -26 -8
-28 -22 -14 -24 25 -73 4 -74 -30 -1 -31 -3 -42 -18 -100 -7 -26 -12 -113 -11
-220 1 -220 2 -238 18 -254 6 -6 12 -27 12 -44 0 -52 16 -84 43 -84 27 0 47
17 47 42 0 9 7 21 16 26 16 9 19 67 10 185 -4 51 3 59 9 10 5 -39 16 -114 20
-138 32 -200 144 -468 262 -622 37 -49 106 -128 155 -177 48 -49 88 -91 88
-92 0 -2 18 -20 40 -40 40 -36 50 -54 29 -54 -6 0 -45 -17 -87 -38 -55 -27
-92 -39 -127 -40 -147 -6 -221 -45 -280 -149 -16 -28 -28 -34 -92 -48 -40 -9
-73 -20 -73 -25 0 -4 -16 -11 -36 -15 -54 -10 -191 -58 -259 -91 -103 -49
-215 -142 -284 -234 -14 -19 -29 -37 -32 -40 -14 -12 -77 -120 -107 -183 -31
-67 -76 -196 -107 -312 -30 -110 -42 -165 -38 -165 2 0 -1 -8 -6 -17 -5 -10
-12 -31 -15 -48 -15 -82 -62 -272 -99 -405 -9 -30 -18 -71 -21 -90 -2 -19 -5
-35 -6 -35 -1 0 -3 -9 -5 -20 -1 -11 -26 -81 -55 -155 -33 -87 -53 -155 -56
-190 -5 -74 -5 -76 -41 -150 -18 -36 -34 -85 -38 -110 -7 -56 -14 -74 -87
-210 -22 -41 -23 -114 -3 -153 13 -26 13 -34 -12 -100 -31 -85 -35 -126 -15
-149 14 -17 13 -39 -3 -108 -30 -124 -51 -290 -60 -485 -5 -93 -10 -165 -21
-275 -2 -25 -6 -112 -8 -195 -2 -82 -7 -172 -10 -200 -5 -42 -19 -367 -18
-400 1 -5 4 -26 7 -45 21 -120 59 -152 170 -141 25 2 70 64 81 111 10 47 11
49 18 95 3 22 8 51 11 65 16 76 19 97 30 173 4 27 8 57 10 67 4 22 16 136 20
191 2 28 13 50 45 86 23 26 48 60 56 76 8 15 16 27 17 27 1 0 2 -45 3 -100 1
-91 3 -102 28 -134 47 -62 122 -68 166 -13 23 27 48 100 55 162 9 69 27 156
46 212 11 34 8 166 -6 228 -3 16 -17 57 -31 91 -13 33 -24 66 -24 72 0 7 -4
12 -8 12 -13 0 -31 45 -24 56 22 31 82 62 123 65 62 4 66 6 74 47 5 26 9 32
15 21 6 -8 5 -18 0 -23 -16 -16 -11 -38 7 -34 16 3 42 43 100 155 27 53 56 74
75 55 6 -6 5 -18 -3 -33 -14 -25 -20 -47 -20 -64 8 -240 11 -264 37 -317 48
-95 174 -136 269 -88 22 11 41 20 43 20 5 0 -5 -262 -11 -289 -9 -33 -17 -137
-22 -261 -3 -87 0 -111 15 -142 10 -20 16 -39 14 -41 -3 -2 2 -10 11 -17 8 -7
15 -19 15 -27 0 -8 14 -35 31 -59 30 -44 31 -50 33 -163 2 -65 6 -123 10 -129
9 -14 9 -262 0 -322 -7 -44 -8 -173 -3 -280 2 -49 -3 -102 -16 -180 -3 -14 -7
-38 -9 -55 -2 -16 -8 -50 -12 -75 -4 -25 -7 -51 -5 -58 1 -7 -5 -15 -12 -18
-18 -6 -44 -74 -52 -129 -2 -22 -5 -223 -5 -447 0 -325 -3 -417 -14 -460 -8
-29 -22 -78 -31 -108 -8 -30 -18 -77 -21 -105 -4 -27 -8 -57 -9 -65 -1 -8 -28
-28 -61 -46 -109 -57 -200 -111 -329 -194 -12 -8 -51 -33 -86 -54 -93 -58
-242 -158 -257 -173 -8 -7 -23 -18 -35 -24 -22 -12 -36 -23 -66 -50 -9 -8 -26
-22 -38 -30 -77 -54 -257 -226 -343 -328 -25 -29 -66 -67 -91 -84 -41 -28 -64
-52 -148 -152 -39 -47 -156 -221 -193 -288 -25 -44 -41 -88 -43 -114 -1 -23
-5 -45 -8 -50 -35 -57 -137 -259 -137 -272 0 -6 -4 -11 -10 -11 -5 0 -10 -7
-10 -16 0 -9 -7 -28 -15 -42 -25 -47 -134 -308 -139 -337 -1 -5 -23 -75 -49
-155 -63 -196 -110 -392 -123 -509 -3 -30 -8 -64 -10 -75 -2 -12 -7 -75 -10
-141 -3 -66 -7 -140 -8 -165 -2 -25 -8 -62 -15 -83 -7 -21 -13 -66 -14 -100
-1 -100 13 -419 19 -452 9 -46 32 -113 48 -138 8 -12 19 -56 26 -97 9 -61 39
-217 55 -290 12 -52 69 -247 75 -255 4 -5 11 -26 15 -45 4 -19 13 -48 20 -65
8 -16 29 -66 48 -110 19 -44 78 -168 131 -276 53 -108 96 -200 96 -203 0 -11
37 -93 78 -174 50 -99 120 -190 199 -259 108 -95 160 -150 233 -244 114 -148
154 -195 244 -289 40 -41 89 -104 110 -140 35 -61 128 -160 151 -160 6 0 24
-11 40 -25 36 -29 23 -19 160 -128 61 -48 115 -91 120 -95 6 -4 48 -27 95 -51
47 -24 96 -51 110 -61 14 -9 57 -28 95 -41 61 -21 87 -23 199 -22 89 1 148 -3
190 -14 66 -16 213 -49 261 -58 17 -3 41 -8 55 -10 14 -3 36 -8 50 -10 14 -3
39 -7 55 -10 43 -6 82 -14 151 -30 34 -8 73 -16 85 -19 13 -2 45 -11 72 -19
26 -8 47 -13 47 -11 0 3 8 0 19 -5 10 -6 31 -13 47 -15 16 -3 63 -14 104 -25
41 -10 91 -22 110 -25 68 -12 77 -14 136 -39 34 -14 82 -28 109 -32 26 -3 50
-7 54 -9 14 -8 151 -19 236 -19 100 0 179 9 240 25 22 5 47 12 55 13 177 38
345 104 402 158 7 7 67 30 133 51 66 22 126 44 133 49 6 5 12 7 12 3 0 -3 35
11 78 30 42 20 82 37 87 38 6 1 17 6 25 11 8 5 44 25 80 43 36 19 90 50 121
68 31 19 62 34 68 34 6 0 11 4 11 8 0 4 19 18 43 30 23 13 51 28 63 35 186
109 256 153 273 168 11 11 23 19 26 19 6 0 127 94 170 131 11 10 56 48 100 84
180 149 185 154 390 354 119 116 163 153 215 177 71 34 56 15 242 300 108 164
241 401 269 479 17 45 23 86 24 165 2 71 7 117 19 144 9 21 16 41 16 45 0 20
64 199 76 212 13 15 60 162 70 219 3 14 8 34 11 45 3 11 7 67 9 125 1 58 5
116 8 130 27 113 28 580 2 950 -3 36 -8 128 -11 205 -8 194 -10 207 -45 345
-37 150 -91 279 -135 330 -12 14 -55 102 -61 125 -1 6 -27 62 -57 125 -30 63
-69 149 -87 190 -54 126 -192 403 -222 447 -15 23 -28 44 -28 48 0 4 -6 13
-12 20 -31 35 -48 61 -88 143 -53 106 -188 299 -263 375 -89 89 -125 120 -202
177 -33 25 -62 47 -65 50 -17 18 -96 70 -107 70 -7 0 -13 4 -13 9 0 5 -13 14
-29 21 l-30 12 5 166 c2 92 6 275 9 407 5 241 9 419 19 855 4 129 8 336 11
460 12 514 15 675 20 855 3 105 7 300 10 435 6 276 13 567 21 870 2 113 6 268
7 344 l3 139 50 17 c68 24 92 38 136 85 43 44 88 127 88 160 0 12 3 25 8 29 4
4 7 11 7 14 1 4 4 23 8 42 4 19 9 51 12 71 4 26 22 53 65 97 84 88 149 238
145 332 -3 52 -20 144 -30 160 -7 11 -12 35 -21 90 -12 78 -40 168 -84 264
-11 25 -29 66 -40 91 -11 25 -20 47 -20 49 0 4 -43 97 -125 271 -13 28 -33 74
-45 104 -21 56 -46 111 -84 191 -16 34 -21 62 -20 115 10 423 16 696 18 725 2
41 -15 40 186 16 14 -2 54 -6 90 -10 36 -4 81 -9 100 -11 55 -7 180 -19 290
-29 175 -16 303 -21 530 -21 285 0 355 5 570 41 52 9 106 18 120 20 14 2 36 6
50 8 13 3 40 8 60 11 20 3 47 7 60 10 14 3 43 7 65 10 22 3 52 7 67 10 84 16
213 20 840 25 43 0 51 24 63 200 3 36 7 85 10 110 3 25 7 86 11 135 3 50 8
108 10 130 2 22 6 74 9 115 3 41 7 98 10 125 6 75 17 214 29 385 4 52 9 109
11 125 2 17 7 73 10 125 4 52 9 111 11 130 14 132 21 316 12 325 -17 18 -172
26 -523 30 -170 2 -330 0 -355 -5 -25 -4 -78 -11 -119 -14 -41 -4 -77 -8 -80
-10 -3 -2 -33 -7 -66 -10 -33 -4 -71 -9 -85 -11 -14 -2 -45 -7 -70 -10 -25 -4
-58 -8 -75 -11 -141 -21 -441 -20 -597 1 -18 3 -60 7 -93 10 -33 3 -82 8 -110
11 -102 11 -122 13 -210 19 -261 18 -448 26 -650 28 -130 2 -142 4 -163 25
-42 41 -122 18 -141 -40 -6 -18 -13 -166 -16 -328 -3 -162 -8 -392 -11 -510
-3 -118 -5 -224 -4 -235 1 -11 1 -24 1 -30 -2 -45 -11 -380 -15 -600 -11 -543
-18 -810 -20 -812 -1 -1 -34 28 -72 65 -62 60 -200 162 -219 162 -4 0 -21 6
-38 14 -61 27 -66 28 -164 54 -39 10 -79 17 -87 16 -10 -1 -18 7 -22 22 -5 21
-24 33 -61 40 -6 1 -27 7 -45 12 -18 6 -46 13 -61 16 -16 4 -56 35 -91 70 -66
66 -112 86 -197 88 -20 0 -57 14 -89 33 -30 18 -75 41 -100 52 l-44 19 68 64
c147 138 262 260 305 323 8 12 20 25 25 29 6 4 7 8 2 8 -5 0 -2 8 6 18 13 15
33 48 76 128 24 45 56 125 81 201 24 77 28 82 51 78 45 -8 58 3 66 53 3 26 10
54 14 62 16 30 22 106 25 280 1 115 -2 185 -9 205 -7 17 -13 48 -15 70 -1 22
-9 47 -16 55 -13 16 -21 38 -29 82 -6 34 -74 236 -89 263 -6 11 -12 22 -13 25
-7 30 -82 179 -100 201 -8 8 -14 20 -14 26 0 5 -9 18 -20 28 -11 10 -20 23
-20 29 0 6 -15 28 -33 48 -17 20 -39 46 -48 57 -65 85 -218 223 -329 296 -25
17 -47 33 -50 36 -15 19 -260 129 -350 158 -58 18 -114 37 -125 41 -11 5 -36
11 -55 14 -19 3 -48 8 -65 11 -89 16 -345 26 -345 14z m-1406 -1705 c3 -8 2
-12 -4 -9 -6 3 -10 10 -10 16 0 14 7 11 14 -7z m3006 -2986 c0 -12 82 -143 91
-146 5 -2 9 -8 9 -14 0 -5 9 -21 20 -35 11 -14 17 -29 14 -34 -21 -35 2 -149
29 -149 7 0 0 -11 -15 -25 -52 -48 -49 -134 7 -202 33 -40 36 -47 22 -55 -42
-23 -56 -104 -27 -158 15 -30 90 -100 106 -100 7 0 15 -7 18 -16 3 -8 2 -13
-2 -11 -16 10 -76 -30 -94 -63 -51 -94 19 -191 172 -236 78 -23 103 -27 201
-31 l96 -5 -3 -101 c-1 -56 -5 -246 -9 -422 -3 -176 -8 -404 -10 -506 -3 -102
-7 -306 -10 -455 -3 -148 -8 -357 -10 -464 -2 -107 -6 -307 -9 -445 -6 -259
-14 -665 -21 -960 -2 -93 -5 -172 -6 -175 -1 -3 -1 -8 -1 -11 3 -24 3 -105 -3
-319 -3 -135 -8 -310 -10 -390 -2 -80 -4 -158 -4 -173 l-1 -28 -27 19 c-16 11
-41 28 -58 38 -31 19 -40 24 -129 71 -49 26 -77 51 -141 124 -16 19 -45 46
-63 60 -23 18 -34 35 -36 60 -2 18 -9 57 -16 84 -7 28 -14 64 -16 80 -3 17
-12 58 -20 92 -12 52 -14 132 -11 480 3 235 1 436 -4 459 -5 23 -25 59 -43 80
-36 42 -35 39 -51 279 -2 28 -7 95 -10 150 -4 55 -7 129 -5 165 4 133 3 197
-5 278 -7 71 -6 82 8 82 25 0 31 31 38 190 2 46 8 70 21 84 10 11 18 25 18 30
0 6 8 25 18 41 14 25 17 60 19 220 2 199 11 553 16 618 1 21 -1 41 -4 43 -4 2
-3 19 1 38 4 19 6 36 5 38 -2 2 -7 30 -10 63 -4 33 -8 71 -10 85 -7 61 -58
203 -84 234 -8 9 -10 16 -5 16 5 0 4 4 -1 8 -6 4 -19 26 -30 50 -29 67 -17
172 20 172 8 0 20 10 26 23 7 12 15 24 18 27 8 6 33 59 38 80 7 29 1 160 -12
255 -5 33 -9 67 -10 75 -1 8 -5 26 -8 40 -4 14 -9 48 -12 75 -4 28 -8 64 -11
80 -9 71 -14 124 -19 190 -3 39 -8 97 -11 130 -3 33 -6 66 -5 73 2 25 2 38 -3
92 -2 30 -3 57 -1 60 5 8 75 6 75 -2z m-2885 -75 c-1 -20 -6 -38 -13 -41 -13
-4 -15 19 -6 56 9 34 19 26 19 -15z m-4 -690 c0 -5 2 -24 4 -43 7 -70 17 -103
41 -141 30 -47 44 -129 23 -130 -14 -1 -44 -5 -91 -14 -18 -3 -29 0 -30 8 -3
27 -5 33 -17 69 -13 39 -7 62 26 100 17 19 23 72 13 108 -4 14 -5 31 -3 38 5
13 32 17 34 5z m-82 -655 c-14 -28 -24 -37 -31 -30 -15 15 23 93 39 80 10 -8
8 -19 -8 -50z m1569 -1484 c13 -4 22 -14 22 -26 0 -28 18 -58 62 -100 28 -28
38 -47 39 -70 1 -18 2 -44 4 -58 1 -14 5 -61 9 -105 l6 -81 -36 -34 c-20 -19
-42 -47 -50 -62 -19 -36 -18 -118 2 -146 8 -12 12 -22 9 -22 -4 0 10 -23 30
-51 33 -47 36 -54 30 -102 -3 -29 -11 -75 -19 -103 -7 -28 -12 -84 -11 -124 1
-53 -4 -84 -17 -111 -26 -54 -30 -114 -33 -504 -2 -192 -4 -373 -4 -401 l-1
-50 -132 0 c-118 -1 -231 -9 -249 -20 -16 -9 -17 40 -8 497 1 48 -1 92 -5 98
-4 6 -4 11 1 11 11 0 3 277 -10 330 -9 41 -22 66 -37 77 -16 11 -17 28 -15
130 2 81 8 132 20 163 20 55 21 136 2 167 -4 7 -11 35 -14 62 -5 41 -1 57 21
97 39 69 41 97 11 162 -23 51 -26 65 -20 131 7 82 16 107 44 116 27 8 51 63
40 92 -7 20 -5 24 24 32 36 10 250 14 285 5z"/>
</g>
</svg>
